<svg id="Capa_1" enable-background="new 0 0 512 512" height="512" viewBox="0 0 512 512" width="512" xmlns="http://www.w3.org/2000/svg"><g fill="#b1dbfc"><path d="m363.276 166.658c-1.449 0-2.913-.413-4.21-1.277-3.5-2.329-4.448-7.054-2.119-10.553l82.204-123.515c2.33-3.5 7.054-4.449 10.554-2.119 3.5 2.329 4.448 7.054 2.119 10.553l-82.204 123.515c-1.467 2.204-3.883 3.396-6.344 3.396z"/><path d="m340.855 172.555c-1.146 0-2.309-.26-3.402-.808l-70.608-35.364c-3.759-1.883-5.28-6.456-3.397-10.214 1.882-3.76 6.455-5.281 10.215-3.397l70.608 35.364c3.759 1.883 5.28 6.456 3.397 10.214-1.335 2.665-4.022 4.205-6.813 4.205z"/><path d="m169.46 216.737c-1.946 0-3.891-.741-5.378-2.225-2.975-2.969-2.979-7.789-.009-10.764l73.391-73.517c2.969-2.975 7.788-2.98 10.764-.009 2.975 2.969 2.979 7.789.009 10.764l-73.391 73.517c-1.485 1.489-3.436 2.234-5.386 2.234z"/><path d="m76.378 269.728c-2.765 0-5.43-1.51-6.778-4.139-1.919-3.74-.443-8.328 3.298-10.247l63.302-32.476c3.741-1.921 8.328-.442 10.246 3.297 1.919 3.74.443 8.328-3.298 10.247l-63.302 32.476c-1.112.572-2.299.842-3.468.842z"/></g><circle cx="58.531" cy="270.792" fill="#ff656f" r="23.536"/><circle cx="157.265" cy="221.341" fill="#ffa85d" r="23.536"/><circle cx="256" cy="122.439" fill="#fee55a" r="23.536"/><circle cx="354.735" cy="171.89" fill="#43cb8e" r="23.536"/><circle cx="453.469" cy="23.536" fill="#23a8fe" r="23.536"/><path d="m60.705 270.792c0-8.254 4.252-15.51 10.681-19.712-3.696-2.416-8.11-3.825-12.855-3.825-12.999 0-23.536 10.537-23.536 23.536s10.538 23.536 23.536 23.536c4.745 0 9.159-1.409 12.855-3.825-6.43-4.2-10.681-11.456-10.681-19.71z" fill="#ff4756"/><path d="m159.439 221.341c0-8.254 4.252-15.51 10.681-19.712-3.696-2.416-8.11-3.825-12.855-3.825-12.999 0-23.536 10.537-23.536 23.536s10.537 23.536 23.536 23.536c4.745 0 9.159-1.409 12.855-3.825-6.429-4.2-10.681-11.456-10.681-19.71z" fill="#ff9839"/><path d="m258.174 122.439c0-8.254 4.252-15.51 10.681-19.712-3.696-2.416-8.11-3.825-12.855-3.825-12.999 0-23.536 10.537-23.536 23.536s10.538 23.536 23.536 23.536c4.745 0 9.159-1.409 12.855-3.825-6.429-4.2-10.681-11.457-10.681-19.71z" fill="#ffd301"/><path d="m356.909 171.89c0-8.254 4.252-15.51 10.681-19.712-3.696-2.416-8.11-3.825-12.855-3.825-12.999 0-23.536 10.537-23.536 23.536s10.538 23.536 23.536 23.536c4.745 0 9.159-1.409 12.855-3.825-6.43-4.2-10.681-11.457-10.681-19.71z" fill="#00ba66"/><path d="m455.643 23.536c0-8.254 4.252-15.51 10.681-19.712-3.696-2.415-8.11-3.824-12.855-3.824-12.999 0-23.536 10.537-23.536 23.536s10.538 23.536 23.536 23.536c4.745 0 9.159-1.409 12.855-3.825-6.429-4.201-10.681-11.457-10.681-19.711z" fill="#0193fa"/><path d="m83.986 357.91h-50.91c-3.516 0-6.365 2.85-6.365 6.365v140.113h63.641v-140.112c-.001-3.515-2.851-6.366-6.366-6.366z" fill="#ff656f"/><path d="m182.72 308.459h-50.91c-3.516 0-6.365 2.85-6.365 6.365v189.564h63.641v-189.563c0-3.516-2.85-6.366-6.366-6.366z" fill="#ffa85d"/><path d="m281.455 209.126h-50.91c-3.516 0-6.365 2.85-6.365 6.365v288.898h63.641v-288.898c-.001-3.515-2.851-6.365-6.366-6.365z" fill="#fee55a"/><path d="m380.19 259.008h-50.91c-3.515 0-6.365 2.85-6.365 6.365v239.015h63.641v-239.015c-.001-3.515-2.851-6.365-6.366-6.365z" fill="#43cb8e"/><path d="m478.924 109.959h-50.91c-3.516 0-6.365 2.85-6.365 6.365v388.064h63.641v-388.063c0-3.516-2.85-6.366-6.366-6.366z" fill="#23a8fe"/><path d="m72.187 357.91h-39.111c-3.516 0-6.365 2.85-6.365 6.365v140.113h39.112v-140.112c-.001-3.515 2.849-6.366 6.364-6.366z" fill="#ff4756"/><path d="m170.922 308.459h-39.112c-3.516 0-6.365 2.85-6.365 6.365v189.564h39.112v-189.563c0-3.516 2.849-6.366 6.365-6.366z" fill="#ff9839"/><path d="m269.657 209.126h-39.112c-3.516 0-6.365 2.85-6.365 6.365v288.898h39.112v-288.898c-.001-3.515 2.849-6.365 6.365-6.365z" fill="#ffd301"/><path d="m368.391 259.008h-39.111c-3.515 0-6.365 2.85-6.365 6.365v239.015h39.112v-239.015c-.001-3.515 2.849-6.365 6.364-6.365z" fill="#00ba66"/><path d="m467.126 109.959h-39.112c-3.516 0-6.365 2.85-6.365 6.365v388.064h39.112v-388.063c0-3.516 2.85-6.366 6.365-6.366z" fill="#0193fa"/><path d="m502.321 512h-492.642c-4.204 0-7.611-3.407-7.611-7.612s3.408-7.611 7.611-7.611h492.642c4.204 0 7.611 3.407 7.611 7.611s-3.407 7.612-7.611 7.612z" fill="#23a8fe"/></svg>